<svg width="121" height="39" viewBox="0 0 121 39" fill="none" xmlns="http://www.w3.org/2000/svg">
<mask id="path-1-inside-1_56_190" fill="white">
<path d="M119.375 22.2711C120.41 23.2183 121 24.5571 121 25.9604V34C121 36.7614 118.761 39 116 39H5C2.23857 39 0 36.7614 0 34V5C0 2.23858 2.23858 0 5 0H93.0864C94.3356 0 95.5395 0.467588 96.4612 1.31072L119.375 22.2711Z"/>
</mask>
<path d="M96.4612 1.31072L97.1361 0.572869L96.4612 1.31072ZM119.375 22.2711L118.7 23.009L119.375 22.2711ZM121 25.9604H120V34H121H122V25.9604H121ZM116 39V38H5V39V40H116V39ZM0 34H1V5H0H-1V34H0ZM5 0V1H93.0864V0V-1H5V0ZM96.4612 1.31072L95.7862 2.04858L118.7 23.009L119.375 22.2711L120.05 21.5333L97.1361 0.572869L96.4612 1.31072ZM93.0864 0V1C94.0857 1 95.0489 1.37407 95.7862 2.04858L96.4612 1.31072L97.1361 0.572869C96.0301 -0.438896 94.5854 -1 93.0864 -1V0ZM0 5H1C1 2.79086 2.79086 1 5 1V0V-1C1.68629 -1 -1 1.68629 -1 5H0ZM5 39V38C2.79086 38 1 36.2091 1 34H0H-1C-1 37.3137 1.68629 40 5 40V39ZM121 34H120C120 36.2091 118.209 38 116 38V39V40C119.314 40 122 37.3137 122 34H121ZM121 25.9604H122C122 24.2764 121.292 22.6699 120.05 21.5333L119.375 22.2711L118.7 23.009C119.528 23.7668 120 24.8377 120 25.9604H121Z" fill="#6DFB60" mask="url(#path-1-inside-1_56_190)"/>
<path d="M32.923 14.9048C32.8699 14.4341 32.6512 14.0695 32.2667 13.811C31.8823 13.5492 31.3984 13.4183 30.815 13.4183C30.3974 13.4183 30.0361 13.4845 29.7312 13.6171C29.4263 13.7464 29.1893 13.9254 29.0203 14.1541C28.8546 14.3794 28.7717 14.6363 28.7717 14.9246C28.7717 15.1666 28.828 15.3754 28.9407 15.5511C29.0567 15.7267 29.2075 15.8742 29.3931 15.9935C29.5821 16.1095 29.7842 16.2073 29.9997 16.2869C30.2151 16.3631 30.4223 16.4261 30.6211 16.4758L31.6154 16.7343C31.9403 16.8139 32.2734 16.9216 32.6147 17.0575C32.9561 17.1934 33.2726 17.3723 33.5643 17.5944C33.856 17.8165 34.0913 18.0916 34.2703 18.4197C34.4526 18.7478 34.5437 19.1406 34.5437 19.5979C34.5437 20.1746 34.3946 20.6867 34.0963 21.1342C33.8013 21.5816 33.3721 21.9346 32.8086 22.1931C32.2485 22.4516 31.5707 22.5809 30.7752 22.5809C30.0129 22.5809 29.3534 22.4599 28.7966 22.218C28.2397 21.976 27.8039 21.633 27.489 21.1889C27.1742 20.7414 27.0002 20.2111 26.967 19.5979H28.5082C28.538 19.9658 28.6573 20.2724 28.8662 20.5177C29.0783 20.7596 29.3484 20.9403 29.6765 21.0596C30.008 21.1756 30.3709 21.2336 30.7653 21.2336C31.1995 21.2336 31.5856 21.1657 31.9237 21.0298C32.2651 20.8906 32.5335 20.6983 32.7291 20.4531C32.9246 20.2045 33.0224 19.9145 33.0224 19.583C33.0224 19.2814 32.9362 19.0345 32.7639 18.8423C32.5948 18.65 32.3645 18.4909 32.0728 18.365C31.7845 18.239 31.458 18.128 31.0934 18.0319L29.8903 17.7038C29.075 17.4817 28.4287 17.1552 27.9514 16.7244C27.4774 16.2935 27.2404 15.7234 27.2404 15.0141C27.2404 14.4275 27.3995 13.9154 27.7177 13.4779C28.0359 13.0404 28.4668 12.7007 29.0103 12.4587C29.5539 12.2135 30.1671 12.0908 30.8498 12.0908C31.5392 12.0908 32.1474 12.2118 32.6744 12.4538C33.2047 12.6957 33.6223 13.0288 33.9272 13.4531C34.2322 13.874 34.3913 14.3579 34.4045 14.9048H32.923ZM37.7467 17.8778V22.4119H36.2602V12.23H37.7268V16.0184H37.8212C38.0002 15.6074 38.2736 15.2809 38.6415 15.039C39.0094 14.797 39.49 14.6761 40.0833 14.6761C40.607 14.6761 41.0644 14.7838 41.4555 14.9992C41.8499 15.2147 42.1548 15.5362 42.3702 15.9637C42.589 16.388 42.6984 16.9183 42.6984 17.5546V22.4119H41.2119V17.7336C41.2119 17.1735 41.0677 16.7393 40.7793 16.431C40.491 16.1195 40.0899 15.9637 39.5762 15.9637C39.2249 15.9637 38.91 16.0383 38.6316 16.1874C38.3565 16.3366 38.1394 16.5553 37.9803 16.8437C37.8245 17.1287 37.7467 17.4734 37.7467 17.8778ZM47.8986 22.566C47.1827 22.566 46.558 22.4019 46.0244 22.0738C45.4907 21.7457 45.0764 21.2866 44.7815 20.6967C44.4865 20.1067 44.339 19.4173 44.339 18.6285C44.339 17.8363 44.4865 17.1436 44.7815 16.5504C45.0764 15.9571 45.4907 15.4964 46.0244 15.1683C46.558 14.8401 47.1827 14.6761 47.8986 14.6761C48.6146 14.6761 49.2393 14.8401 49.7729 15.1683C50.3066 15.4964 50.7209 15.9571 51.0158 16.5504C51.3108 17.1436 51.4583 17.8363 51.4583 18.6285C51.4583 19.4173 51.3108 20.1067 51.0158 20.6967C50.7209 21.2866 50.3066 21.7457 49.7729 22.0738C49.2393 22.4019 48.6146 22.566 47.8986 22.566ZM47.9036 21.3181C48.3676 21.3181 48.7521 21.1955 49.057 20.9502C49.362 20.705 49.5873 20.3785 49.7332 19.9708C49.8823 19.5631 49.9569 19.114 49.9569 18.6235C49.9569 18.1363 49.8823 17.6889 49.7332 17.2812C49.5873 16.8702 49.362 16.5404 49.057 16.2918C48.7521 16.0433 48.3676 15.919 47.9036 15.919C47.4363 15.919 47.0485 16.0433 46.7403 16.2918C46.4353 16.5404 46.2083 16.8702 46.0592 17.2812C45.9133 17.6889 45.8404 18.1363 45.8404 18.6235C45.8404 19.114 45.9133 19.5631 46.0592 19.9708C46.2083 20.3785 46.4353 20.705 46.7403 20.9502C47.0485 21.1955 47.4363 21.3181 47.9036 21.3181ZM53.1176 25.2755V14.7755H54.5693V16.0134H54.6936C54.7797 15.8543 54.904 15.6704 55.0664 15.4616C55.2288 15.2528 55.4542 15.0705 55.7426 14.9147C56.0309 14.7556 56.4121 14.6761 56.886 14.6761C57.5025 14.6761 58.0527 14.8318 58.5366 15.1434C59.0205 15.455 59.4 15.9041 59.6751 16.4907C59.9535 17.0773 60.0927 17.7833 60.0927 18.6086C60.0927 19.4339 59.9552 20.1415 59.6801 20.7315C59.405 21.3181 59.0271 21.7705 58.5466 22.0887C58.066 22.4036 57.5174 22.561 56.901 22.561C56.4369 22.561 56.0574 22.4831 55.7625 22.3273C55.4708 22.1716 55.2421 21.9893 55.0764 21.7805C54.9107 21.5717 54.7831 21.3861 54.6936 21.2237H54.6041V25.2755H53.1176ZM54.5743 18.5937C54.5743 19.1306 54.6521 19.6013 54.8079 20.0056C54.9637 20.41 55.1891 20.7265 55.4841 20.9552C55.779 21.1806 56.1403 21.2933 56.5679 21.2933C57.012 21.2933 57.3832 21.1756 57.6815 20.9403C57.9798 20.7016 58.2052 20.3785 58.3576 19.9708C58.5134 19.5631 58.5913 19.1041 58.5913 18.5937C58.5913 18.0899 58.5151 17.6375 58.3626 17.2364C58.2135 16.8354 57.9881 16.5189 57.6865 16.2869C57.3882 16.0549 57.0153 15.9389 56.5679 15.9389C56.137 15.9389 55.7724 16.0499 55.4741 16.272C55.1791 16.494 54.9554 16.8039 54.8029 17.2016C54.6505 17.5994 54.5743 18.0634 54.5743 18.5937ZM73.8006 12.23V22.4119H72.3887L67.2133 14.9445H67.1188V22.4119H65.5826V12.23H67.0045L72.1849 19.7073H72.2793V12.23H73.8006ZM79.1389 22.566C78.423 22.566 77.7982 22.4019 77.2646 22.0738C76.731 21.7457 76.3167 21.2866 76.0217 20.6967C75.7267 20.1067 75.5792 19.4173 75.5792 18.6285C75.5792 17.8363 75.7267 17.1436 76.0217 16.5504C76.3167 15.9571 76.731 15.4964 77.2646 15.1683C77.7982 14.8401 78.423 14.6761 79.1389 14.6761C79.8548 14.6761 80.4796 14.8401 81.0132 15.1683C81.5468 15.4964 81.9611 15.9571 82.2561 16.5504C82.5511 17.1436 82.6985 17.8363 82.6985 18.6285C82.6985 19.4173 82.5511 20.1067 82.2561 20.6967C81.9611 21.2866 81.5468 21.7457 81.0132 22.0738C80.4796 22.4019 79.8548 22.566 79.1389 22.566ZM79.1439 21.3181C79.6079 21.3181 79.9923 21.1955 80.2973 20.9502C80.6022 20.705 80.8276 20.3785 80.9734 19.9708C81.1225 19.5631 81.1971 19.114 81.1971 18.6235C81.1971 18.1363 81.1225 17.6889 80.9734 17.2812C80.8276 16.8702 80.6022 16.5404 80.2973 16.2918C79.9923 16.0433 79.6079 15.919 79.1439 15.919C78.6765 15.919 78.2887 16.0433 77.9805 16.2918C77.6756 16.5404 77.4485 16.8702 77.2994 17.2812C77.1536 17.6889 77.0806 18.1363 77.0806 18.6235C77.0806 19.114 77.1536 19.5631 77.2994 19.9708C77.4485 20.3785 77.6756 20.705 77.9805 20.9502C78.2887 21.1955 78.6765 21.3181 79.1439 21.3181ZM85.7809 22.4119L83.5338 14.7755H85.07L86.5664 20.3835H86.641L88.1424 14.7755H89.6787L91.1701 20.3586H91.2447L92.7312 14.7755H94.2674L92.0252 22.4119H90.5089L88.9578 16.8984H88.8434L87.2923 22.4119H85.7809Z" fill="white"/>
</svg>
