<svg width="216" height="16" viewBox="0 0 216 16" fill="none" xmlns="http://www.w3.org/2000/svg">
<path d="M0.940107 15.3999L2.02011 11.9799H0.000107452V10.3399H2.54011L3.96011 5.9399H0.640107V4.2999H4.48011L5.60011 1.0199H7.22011L6.08011 4.2999H11.3001L12.4201 1.0199H14.0401L12.9001 4.2999H14.8201V5.9399H12.4001L10.9801 10.3399H14.1601V11.9799H10.4601L9.40011 15.3999H7.76011L8.84011 11.9799H3.64011L2.58011 15.3999H0.940107ZM4.18011 10.3399H9.36011L10.7801 5.9399H5.58011L4.18011 10.3399ZM21.2376 15.3999L15.9976 0.999902H17.7176L21.9376 12.5599L26.1376 0.999902H28.0976L32.3176 12.5599L36.4976 0.999902H38.2576L33.0176 15.3999H31.5976L27.1176 3.0999L22.6376 15.3999H21.2376ZM39.9518 15.3999V-9.84669e-05H41.5918V3.7999H49.3518C49.7918 3.7999 50.1918 3.91323 50.5518 4.1399C50.9252 4.35323 51.2185 4.64657 51.4318 5.0199C51.6585 5.3799 51.7718 5.7799 51.7718 6.2199V15.3999H50.1318V6.2199C50.1318 6.00657 50.0518 5.82657 49.8918 5.6799C49.7452 5.5199 49.5652 5.4399 49.3518 5.4399H42.3918C42.1785 5.4399 41.9918 5.5199 41.8318 5.6799C41.6718 5.82657 41.5918 6.00657 41.5918 6.2199V15.3999H39.9518ZM55.6712 15.3999C55.2312 15.3999 54.8245 15.2932 54.4512 15.0799C54.0912 14.8532 53.7979 14.5599 53.5712 14.1999C53.3579 13.8266 53.2512 13.4199 53.2512 12.9799V6.2199C53.2512 5.7799 53.3579 5.3799 53.5712 5.0199C53.7979 4.64657 54.0912 4.35323 54.4512 4.1399C54.8245 3.91323 55.2312 3.7999 55.6712 3.7999H62.6312C63.0845 3.7999 63.4912 3.91323 63.8512 4.1399C64.2245 4.35323 64.5179 4.64657 64.7312 5.0199C64.9579 5.3799 65.0712 5.7799 65.0712 6.2199V10.4199H54.8912V12.9799C54.8912 13.1932 54.9645 13.3799 55.1112 13.5399C55.2712 13.6866 55.4579 13.7599 55.6712 13.7599H65.0712V15.3999H55.6712ZM54.8912 8.7799H63.4112V6.2199C63.4112 6.00657 63.3312 5.82657 63.1712 5.6799C63.0245 5.5199 62.8445 5.4399 62.6312 5.4399H55.6712C55.4579 5.4399 55.2712 5.5199 55.1112 5.6799C54.9645 5.82657 54.8912 6.00657 54.8912 6.2199V8.7799ZM67.0212 15.3999V6.2199C67.0212 5.7799 67.1279 5.3799 67.3412 5.0199C67.5679 4.64657 67.8612 4.35323 68.2212 4.1399C68.5945 3.91323 69.0012 3.7999 69.4412 3.7999H75.9612V5.4399H69.4412C69.2279 5.4399 69.0412 5.5199 68.8812 5.6799C68.7345 5.82657 68.6612 6.00657 68.6612 6.2199V15.3999H67.0212ZM79.6556 15.3999C79.2156 15.3999 78.8089 15.2932 78.4356 15.0799C78.0756 14.8532 77.7822 14.5599 77.5556 14.1999C77.3422 13.8266 77.2356 13.4199 77.2356 12.9799V6.2199C77.2356 5.7799 77.3422 5.3799 77.5556 5.0199C77.7822 4.64657 78.0756 4.35323 78.4356 4.1399C78.8089 3.91323 79.2156 3.7999 79.6556 3.7999H86.6156C87.0689 3.7999 87.4756 3.91323 87.8356 4.1399C88.2089 4.35323 88.5022 4.64657 88.7156 5.0199C88.9422 5.3799 89.0556 5.7799 89.0556 6.2199V10.4199H78.8756V12.9799C78.8756 13.1932 78.9489 13.3799 79.0956 13.5399C79.2556 13.6866 79.4422 13.7599 79.6556 13.7599H89.0556V15.3999H79.6556ZM78.8756 8.7799H87.3956V6.2199C87.3956 6.00657 87.3156 5.82657 87.1556 5.6799C87.0089 5.5199 86.8289 5.4399 86.6156 5.4399H79.6556C79.4422 5.4399 79.2556 5.5199 79.0956 5.6799C78.9489 5.82657 78.8756 6.00657 78.8756 6.2199V8.7799ZM91.3832 15.3999V0.999902H93.0232V15.3999H91.3832ZM95.4206 15.3999V3.7999H104.821C105.261 3.7999 105.661 3.91323 106.021 4.1399C106.394 4.35323 106.687 4.64657 106.901 5.0199C107.127 5.3799 107.241 5.7799 107.241 6.2199V15.3999H105.601V6.2199C105.601 6.00657 105.521 5.82657 105.361 5.6799C105.214 5.5199 105.034 5.4399 104.821 5.4399H97.8606C97.6472 5.4399 97.4606 5.5199 97.3006 5.6799C97.1406 5.82657 97.0606 6.00657 97.0606 6.2199V15.3999H95.4206ZM111.166 15.3999C110.713 15.3999 110.3 15.2932 109.926 15.0799C109.566 14.8532 109.273 14.5599 109.046 14.1999C108.833 13.8266 108.726 13.4199 108.726 12.9799V6.2199C108.726 5.7799 108.833 5.3799 109.046 5.0199C109.273 4.64657 109.566 4.35323 109.926 4.1399C110.3 3.91323 110.713 3.7999 111.166 3.7999H118.906V-9.84669e-05H120.546V15.3999H111.166ZM111.166 13.7599H118.126C118.34 13.7599 118.52 13.6866 118.666 13.5399C118.826 13.3799 118.906 13.1932 118.906 12.9799V6.2199C118.906 6.00657 118.826 5.82657 118.666 5.6799C118.52 5.5199 118.34 5.4399 118.126 5.4399H111.166C110.953 5.4399 110.766 5.5199 110.606 5.6799C110.46 5.82657 110.386 6.00657 110.386 6.2199V12.9799C110.386 13.1932 110.46 13.3799 110.606 13.5399C110.766 13.6866 110.953 13.7599 111.166 13.7599ZM122.646 15.3999V3.7999H124.286V15.3999H122.646ZM122.646 1.6399V-9.84669e-05H124.286V1.6399H122.646ZM128.523 15.3999C128.083 15.3999 127.677 15.2932 127.303 15.0799C126.943 14.8532 126.65 14.5599 126.423 14.1999C126.21 13.8266 126.103 13.4199 126.103 12.9799V8.7799H136.263V6.2199C136.263 6.00657 136.183 5.82657 136.023 5.6799C135.877 5.5199 135.697 5.4399 135.483 5.4399H126.103V3.7999H135.483C135.937 3.7999 136.343 3.91323 136.703 4.1399C137.077 4.35323 137.37 4.64657 137.583 5.0199C137.81 5.3799 137.923 5.7799 137.923 6.2199V15.3999H128.523ZM128.523 13.7599H136.263V10.4199H127.743V12.9799C127.743 13.1932 127.817 13.3799 127.963 13.5399C128.123 13.6866 128.31 13.7599 128.523 13.7599ZM142.47 15.3999C142.03 15.3999 141.623 15.2932 141.25 15.0799C140.89 14.8666 140.603 14.5799 140.39 14.2199C140.177 13.8466 140.07 13.4399 140.07 12.9999V3.3999C140.07 2.9599 140.177 2.5599 140.39 2.1999C140.603 1.82657 140.89 1.53323 141.25 1.3199C141.623 1.10657 142.03 0.999902 142.47 0.999902H152.07C152.51 0.999902 152.91 1.10657 153.27 1.3199C153.643 1.53323 153.937 1.82657 154.15 2.1999C154.363 2.5599 154.47 2.9599 154.47 3.3999V3.9799H152.85V3.3999C152.85 3.18657 152.77 3.00657 152.61 2.8599C152.463 2.6999 152.283 2.6199 152.07 2.6199H142.47C142.257 2.6199 142.07 2.6999 141.91 2.8599C141.763 3.00657 141.69 3.18657 141.69 3.3999V12.9999C141.69 13.2132 141.763 13.3999 141.91 13.5599C142.07 13.7066 142.257 13.7799 142.47 13.7799H152.07C152.283 13.7799 152.463 13.7066 152.61 13.5599C152.77 13.3999 152.85 13.2132 152.85 12.9999V9.4399H149.29V7.7999H154.47V12.9999C154.47 13.4399 154.363 13.8466 154.15 14.2199C153.937 14.5799 153.643 14.8666 153.27 15.0799C152.91 15.2932 152.51 15.3999 152.07 15.3999H142.47ZM159.012 15.3999C158.572 15.3999 158.165 15.2932 157.792 15.0799C157.432 14.8532 157.138 14.5599 156.912 14.1999C156.698 13.8266 156.592 13.4199 156.592 12.9799V8.7799H166.752V6.2199C166.752 6.00657 166.672 5.82657 166.512 5.6799C166.365 5.5199 166.185 5.4399 165.972 5.4399H156.592V3.7999H165.972C166.425 3.7999 166.832 3.91323 167.192 4.1399C167.565 4.35323 167.858 4.64657 168.072 5.0199C168.298 5.3799 168.412 5.7799 168.412 6.2199V15.3999H159.012ZM159.012 13.7599H166.752V10.4199H158.232V12.9799C158.232 13.1932 158.305 13.3799 158.452 13.5399C158.612 13.6866 158.798 13.7599 159.012 13.7599ZM170.128 15.3999V3.7999H185.448C185.901 3.7999 186.308 3.91323 186.668 4.1399C187.041 4.35323 187.334 4.64657 187.548 5.0199C187.761 5.3799 187.868 5.7799 187.868 6.2199V15.3999H186.248V6.2199C186.248 6.00657 186.168 5.82657 186.008 5.6799C185.848 5.5199 185.661 5.4399 185.448 5.4399H180.628C180.414 5.4399 180.228 5.5199 180.068 5.6799C179.921 5.82657 179.848 6.00657 179.848 6.2199V15.3999H178.188V6.2199C178.188 6.00657 178.108 5.82657 177.948 5.6799C177.801 5.5199 177.621 5.4399 177.408 5.4399H172.568C172.354 5.4399 172.168 5.5199 172.008 5.6799C171.861 5.82657 171.788 6.00657 171.788 6.2199V15.3999H170.128ZM192.038 15.3999C191.598 15.3999 191.192 15.2932 190.818 15.0799C190.458 14.8532 190.165 14.5599 189.938 14.1999C189.725 13.8266 189.618 13.4199 189.618 12.9799V6.2199C189.618 5.7799 189.725 5.3799 189.938 5.0199C190.165 4.64657 190.458 4.35323 190.818 4.1399C191.192 3.91323 191.598 3.7999 192.038 3.7999H198.998C199.452 3.7999 199.858 3.91323 200.218 4.1399C200.592 4.35323 200.885 4.64657 201.098 5.0199C201.325 5.3799 201.438 5.7799 201.438 6.2199V10.4199H191.258V12.9799C191.258 13.1932 191.332 13.3799 191.478 13.5399C191.638 13.6866 191.825 13.7599 192.038 13.7599H201.438V15.3999H192.038ZM191.258 8.7799H199.778V6.2199C199.778 6.00657 199.698 5.82657 199.538 5.6799C199.392 5.5199 199.212 5.4399 198.998 5.4399H192.038C191.825 5.4399 191.638 5.5199 191.478 5.6799C191.332 5.82657 191.258 6.00657 191.258 6.2199V8.7799ZM205.826 15.3999C205.386 15.3999 204.979 15.2932 204.606 15.0799C204.246 14.8532 203.953 14.5599 203.726 14.1999C203.513 13.8266 203.406 13.4199 203.406 12.9799V12.8199H205.046V12.9799C205.046 13.1932 205.119 13.3799 205.266 13.5399C205.426 13.6866 205.613 13.7599 205.826 13.7599H212.786C212.999 13.7599 213.179 13.6866 213.326 13.5399C213.486 13.3799 213.566 13.1932 213.566 12.9799V11.1999C213.566 10.9866 213.486 10.8066 213.326 10.6599C213.179 10.4999 212.999 10.4199 212.786 10.4199H205.826C205.386 10.4199 204.979 10.3132 204.606 10.0999C204.246 9.87324 203.953 9.5799 203.726 9.2199C203.513 8.84657 203.406 8.4399 203.406 7.9999V6.2199C203.406 5.7799 203.513 5.3799 203.726 5.0199C203.953 4.64657 204.246 4.35323 204.606 4.1399C204.979 3.91323 205.386 3.7999 205.826 3.7999H212.786C213.239 3.7999 213.646 3.91323 214.006 4.1399C214.379 4.35323 214.673 4.64657 214.886 5.0199C215.113 5.3799 215.226 5.7799 215.226 6.2199V6.3799H213.566V6.2199C213.566 6.00657 213.486 5.82657 213.326 5.6799C213.179 5.5199 212.999 5.4399 212.786 5.4399H205.826C205.613 5.4399 205.426 5.5199 205.266 5.6799C205.119 5.82657 205.046 6.00657 205.046 6.2199V7.9999C205.046 8.21324 205.119 8.3999 205.266 8.5599C205.426 8.70657 205.613 8.7799 205.826 8.7799H212.786C213.239 8.7799 213.646 8.89324 214.006 9.1199C214.379 9.33324 214.673 9.62657 214.886 9.9999C215.113 10.3599 215.226 10.7599 215.226 11.1999V12.9799C215.226 13.4199 215.113 13.8266 214.886 14.1999C214.673 14.5599 214.379 14.8532 214.006 15.0799C213.646 15.2932 213.239 15.3999 212.786 15.3999H205.826Z" fill="url(#paint0_linear_58_194)"/>
<defs>
<linearGradient id="paint0_linear_58_194" x1="-0.741455" y1="7.3999" x2="216.259" y2="7.3999" gradientUnits="userSpaceOnUse">
<stop offset="0.00480769" stop-color="#E0A54D"/>
<stop offset="0.504808" stop-color="white"/>
<stop offset="1" stop-color="#3C992B"/>
</linearGradient>
</defs>
</svg>
