<svg width="185" height="47" viewBox="0 0 185 47" fill="none" xmlns="http://www.w3.org/2000/svg">
<mask id="path-1-inside-1_47_461" fill="white">
<path d="M182.924 27.1352C184.228 28.075 185 29.584 185 31.1908V42C185 44.7614 182.761 47 180 47H5C2.23857 47 0 44.7614 0 42V5C0 2.23858 2.23858 0 5 0H143.676C144.726 0 145.749 0.330386 146.601 0.944333L182.924 27.1352Z"/>
</mask>
<path d="M146.601 0.944333L147.186 0.133199L146.601 0.944333ZM182.924 27.1352L182.339 27.9463L182.924 27.1352ZM185 31.1908H184V42H185H186V31.1908H185ZM180 47V46H5V47V48H180V47ZM0 42H1V5H0H-1V42H0ZM5 0V1H143.676V0V-1H5V0ZM146.601 0.944333L146.016 1.75547L182.339 27.9463L182.924 27.1352L183.509 26.324L147.186 0.133199L146.601 0.944333ZM143.676 0V1C144.516 1 145.335 1.26431 146.016 1.75547L146.601 0.944333L147.186 0.133199C146.164 -0.603536 144.936 -1 143.676 -1V0ZM0 5H1C1 2.79086 2.79086 1 5 1V0V-1C1.68629 -1 -1 1.68629 -1 5H0ZM5 47V46C2.79086 46 1 44.2091 1 42H0H-1C-1 45.3137 1.68629 48 5 48V47ZM185 42H184C184 44.2091 182.209 46 180 46V47V48C183.314 48 186 45.3137 186 42H185ZM185 31.1908H186C186 29.2626 185.073 27.4518 183.509 26.324L182.924 27.1352L182.339 27.9463C183.382 28.6982 184 29.9053 184 31.1908H185Z" fill="#D9D9D9" mask="url(#path-1-inside-1_47_461)"/>
<path d="M42.9087 30.1373V18.8573H37.2687V15.7373H51.6687V18.8573H46.0287V30.1373H42.9087ZM64.3444 30.1373L60.1644 25.1573H64.2244L67.5444 29.0773V30.1373H64.3444ZM53.1644 30.1373V15.7573H64.5844C65.1311 15.7573 65.6244 15.8906 66.0644 16.1573C66.5178 16.4239 66.8778 16.7839 67.1444 17.2373C67.4244 17.6906 67.5644 18.1839 67.5644 18.7173V22.4373C67.5644 22.9706 67.4244 23.4639 67.1444 23.9173C66.8778 24.3706 66.5178 24.7306 66.0644 24.9973C65.6244 25.2639 65.1311 25.3973 64.5844 25.3973L56.2644 25.4173V30.1373H53.1644ZM56.2644 22.2773H64.4244V18.8573H56.2644V22.2773ZM75.0283 30.1373V24.7573L68.3683 15.7373H72.0683L76.5883 21.4173L81.0883 15.7373H84.8283L78.1483 24.7773V30.1373H75.0283ZM92.2269 30.1373V15.7373H95.4269L103.487 25.3373V15.7373H106.627V30.1373H103.427L95.3269 20.4973V30.1373H92.2269ZM111.788 30.1373C111.254 30.1373 110.761 30.0039 110.308 29.7373C109.854 29.4706 109.494 29.1106 109.228 28.6573C108.961 28.2039 108.828 27.7106 108.828 27.1773V18.6973C108.828 18.1506 108.961 17.6573 109.228 17.2173C109.494 16.7639 109.854 16.4039 110.308 16.1373C110.761 15.8706 111.254 15.7373 111.788 15.7373H120.268C120.801 15.7373 121.288 15.8706 121.728 16.1373C122.181 16.4039 122.541 16.7639 122.808 17.2173C123.088 17.6573 123.228 18.1506 123.228 18.6973V27.1773C123.228 27.7106 123.088 28.2039 122.808 28.6573C122.541 29.1106 122.181 29.4706 121.728 29.7373C121.288 30.0039 120.801 30.1373 120.268 30.1373H111.788ZM111.928 27.0173H120.088V18.8573H111.928V27.0173ZM129.547 30.1373L124.307 15.7373H127.607L130.747 24.3173L133.887 15.7373H136.747L139.907 24.3173L143.047 15.7373H146.327L141.087 30.1373H138.707L135.307 20.8773L131.927 30.1373H129.547Z" fill="#D9D9D9"/>
</svg>
